<?xml version="1.0" encoding="utf-8"?>
<!-- Generator: Adobe Illustrator 16.0.0, SVG Export Plug-In . SVG Version: 6.00 Build 0)  -->
<!DOCTYPE svg PUBLIC "-//W3C//DTD SVG 1.1 Tiny//EN" "http://www.w3.org/Graphics/SVG/1.1/DTD/svg11-tiny.dtd">
<svg version="1.1" baseProfile="tiny" id="Layer_1" xmlns="http://www.w3.org/2000/svg" xmlns:xlink="http://www.w3.org/1999/xlink"
	 x="0px" y="0px" width="358.1px" height="365.6px" viewBox="0 0 358.1 365.6" xml:space="preserve">
<g>
	<image width="1493" height="1493" xlink:href="FAC801BBC55389E5.png"  transform="matrix(0.24 0 0 0.24 0 0)">
	</image>
	<image width="1406" height="1391" xlink:href="FAC801BBC55389E7.png"  transform="matrix(0.24 0 0 0.24 10.4043 12.6836)">
	</image>
	<path fill="none" d="M84.9,61.7c0.6-0.6,1.3-1.3,1.9-1.9C86.2,60.4,85.6,61,84.9,61.7z"/>
	<path fill="none" d="M78.1,69c0.6-0.7,1.2-1.4,1.8-2.1C79.3,67.6,78.7,68.3,78.1,69z"/>
	<path fill="none" d="M80.1,66.7c0.7-0.7,1.4-1.5,2-2.2C81.4,65.3,80.8,66,80.1,66.7z"/>
	<path fill="none" d="M71.7,76.8c0.6-0.8,1.2-1.5,1.8-2.3C72.9,75.3,72.3,76,71.7,76.8z"/>
	<path fill="none" d="M82.7,63.9c0.5-0.5,1-1.1,1.5-1.6C83.8,62.8,83.2,63.4,82.7,63.9z"/>
	<path fill="none" d="M73.6,74.4c0.6-0.8,1.3-1.6,1.9-2.3C74.8,72.8,74.2,73.6,73.6,74.4z"/>
	<path fill="none" d="M62.3,91.1c0.5-0.9,1-1.7,1.5-2.6C63.3,89.3,62.8,90.2,62.3,91.1z"/>
	<path fill="none" d="M64.3,87.7c0.4-0.6,0.8-1.3,1.2-1.9C65.1,86.4,64.7,87.1,64.3,87.7z"/>
	<path fill="none" d="M69.9,79.3c0.4-0.6,0.9-1.2,1.3-1.8C70.8,78.1,70.3,78.7,69.9,79.3z"/>
	<path fill="none" d="M66,85c0.5-0.8,1.1-1.7,1.6-2.5C67.1,83.4,66.5,84.2,66,85z"/>
	<path fill="none" d="M67.7,82.5c0.6-0.8,1.1-1.7,1.7-2.5C68.8,80.9,68.2,81.7,67.7,82.5z"/>
	<path fill="none" d="M76,71.4c0.5-0.6,1-1.1,1.4-1.7C77,70.2,76.5,70.8,76,71.4z"/>
	<path fill="none" d="M92.3,54.8c0.7-0.6,1.3-1.1,2-1.7C93.6,53.7,93,54.3,92.3,54.8z"/>
	<path fill="none" d="M90,56.9c0.5-0.5,1.1-1,1.6-1.5C91,56,90.5,56.4,90,56.9z"/>
	<path fill="none" d="M87.1,59.6c0.7-0.7,1.5-1.4,2.2-2C88.6,58.2,87.8,58.9,87.1,59.6z"/>
	<linearGradient id="SVGID_1_" gradientUnits="userSpaceOnUse" x1="181.75" y1="341.4951" x2="72.2154" y2="40.5512">
		<stop  offset="0" style="stop-color:#EB1B59"/>
		<stop  offset="0.1" style="stop-color:#EB1E40"/>
		<stop  offset="0.2" style="stop-color:#D81F29"/>
		<stop  offset="0.3" style="stop-color:#C32644"/>
		<stop  offset="0.4" style="stop-color:#8D2E66"/>
		<stop  offset="0.5" style="stop-color:#63307D"/>
		<stop  offset="0.6" style="stop-color:#273E95"/>
		<stop  offset="0.7" style="stop-color:#1D98D5"/>
		<stop  offset="0.8" style="stop-color:#00B6AE"/>
		<stop  offset="0.9" style="stop-color:#97C94C"/>
		<stop  offset="1" style="stop-color:#7CC043"/>
	</linearGradient>
	<path fill="url(#SVGID_1_)" d="M239,230.6c-0.1-1.6-0.7-3-1.7-4.1c-1-1.1-2.4-1.8-4-2c-4.1,21.4-13.9,40.7-27.6,56.5
		c-1.6,1.8-3.2,3.5-4.8,5.2c-1.1,1.3-2.3,2.4-3.6,3.5c-4.3,3.7-9.5,6.4-15.2,7.8c-2.8,0.7-5.7,1-8.8,1c-1,0-1.9,0-2.9-0.1
		c-1.2-0.1-2.3-0.2-3.5-0.4c-67.7-9.3-119.9-67.4-119.9-137.7c0-19.3,3.9-37.6,11-54.3c2.2-5.1,4.7-10.1,7.4-14.9
		c0.5-0.9,1-1.7,1.5-2.6c0.2-0.3,0.3-0.5,0.5-0.8c0.4-0.6,0.8-1.3,1.2-1.9c0.2-0.3,0.3-0.5,0.5-0.8c0.5-0.8,1.1-1.7,1.6-2.5
		c0,0,0,0,0,0c0.6-0.8,1.1-1.7,1.7-2.5c0.2-0.2,0.3-0.5,0.5-0.7c0.4-0.6,0.9-1.2,1.3-1.8c0.2-0.2,0.3-0.5,0.5-0.7
		c0.6-0.8,1.2-1.5,1.8-2.3c0,0,0.1-0.1,0.1-0.1c0.6-0.8,1.3-1.6,1.9-2.3c0.2-0.2,0.4-0.4,0.6-0.7c0.5-0.6,1-1.1,1.4-1.7
		c0.2-0.2,0.4-0.5,0.6-0.7c0.6-0.7,1.2-1.4,1.8-2.1c0.1-0.1,0.1-0.1,0.2-0.2c0.7-0.7,1.4-1.5,2-2.2c0.2-0.2,0.4-0.4,0.6-0.6
		c0.5-0.5,1-1.1,1.5-1.6c0.2-0.2,0.4-0.4,0.7-0.7c0.6-0.6,1.3-1.3,1.9-1.9c0.1-0.1,0.2-0.2,0.2-0.2c0.7-0.7,1.5-1.4,2.2-2
		c0.2-0.2,0.4-0.4,0.7-0.6c0.5-0.5,1.1-1,1.6-1.5c0.2-0.2,0.5-0.4,0.7-0.6c0.7-0.6,1.3-1.1,2-1.7c0.1-0.1,0.2-0.2,0.3-0.3
		c0.8-0.6,1.5-1.2,2.3-1.9c0.1-0.1,0.2-0.1,0.2-0.2c7.1-5.5,39.8-31.4,79.3-30.4h0c2.3,0,4.1-1.8,4.1-4.1c0-2.3-1.8-4.1-4.1-4.1h0
		C117.7,12.2,63.7,45.9,34.9,96c-3.3,5.8-6.3,11.8-8.9,17.9c-8.5,20-13.2,42-13.2,65.2c0,84.4,62.6,154.1,143.9,165.3
		c1.4,0.2,2.8,0.4,4.2,0.5c1.1,0.1,2.3,0.1,3.4,0.1c3.6,0,7.1-0.4,10.5-1.3c6.9-1.7,13.1-4.9,18.3-9.3c1.5-1.3,3-2.7,4.3-4.2
		c2-2,3.9-4.1,5.8-6.2c21.7-24.8,35-57,35.8-92.3c0-0.2,0-0.4,0-0.7C239,230.8,239,230.7,239,230.6z"/>
	<path fill="#FCEE21" d="M69.4,80c0.2-0.2,0.3-0.5,0.5-0.7C69.7,79.6,69.5,79.8,69.4,80z"/>
	<path fill="#FCEE21" d="M71.2,77.5c0.2-0.2,0.4-0.5,0.5-0.7C71.6,77,71.4,77.3,71.2,77.5z"/>
	<path fill="#FCEE21" d="M65.5,85.8c0.2-0.3,0.3-0.5,0.5-0.8C65.8,85.3,65.7,85.5,65.5,85.8z"/>
	<path fill="#FCEE21" d="M63.9,88.5c0.2-0.3,0.3-0.5,0.5-0.8C64.2,87.9,64,88.2,63.9,88.5z"/>
	<path fill="#FCEE21" d="M67.6,82.6C67.6,82.5,67.6,82.5,67.6,82.6C67.6,82.5,67.6,82.5,67.6,82.6z"/>
	<path fill="#FCEE21" d="M73.5,74.5c0,0,0.1-0.1,0.1-0.1C73.6,74.4,73.5,74.5,73.5,74.5z"/>
	<path fill="#FCEE21" d="M89.3,57.5c0.2-0.2,0.4-0.4,0.7-0.6C89.7,57.1,89.5,57.3,89.3,57.5z"/>
	<path fill="#FCEE21" d="M82.1,64.5c0.2-0.2,0.4-0.4,0.6-0.6C82.5,64.1,82.3,64.3,82.1,64.5z"/>
	<path fill="#FCEE21" d="M79.9,66.9c0.1-0.1,0.1-0.1,0.2-0.2C80,66.8,80,66.8,79.9,66.9z"/>
	<path fill="#FCEE21" d="M84.3,62.3c0.2-0.2,0.4-0.4,0.7-0.7C84.7,61.9,84.5,62.1,84.3,62.3z"/>
	<path fill="#FCEE21" d="M75.5,72c0.2-0.2,0.4-0.4,0.6-0.7C75.8,71.6,75.7,71.8,75.5,72z"/>
	<path fill="#FCEE21" d="M77.5,69.7c0.2-0.2,0.4-0.5,0.6-0.7C77.9,69.2,77.7,69.4,77.5,69.7z"/>
	<path fill="#FCEE21" d="M86.9,59.8c0.1-0.1,0.2-0.2,0.2-0.2C87,59.6,86.9,59.7,86.9,59.8z"/>
	<path fill="#FCEE21" d="M91.6,55.5c0.2-0.2,0.5-0.4,0.7-0.6C92.1,55.1,91.8,55.3,91.6,55.5z"/>
	<image width="1042" height="1405" xlink:href="FAC801BBC55389E2.png"  transform="matrix(0.24 0 0 0.24 12.7754 7.8945)">
	</image>
	<image width="995" height="1387" xlink:href="FAC801BBC55389E3.png"  transform="matrix(0.24 0 0 0.24 12.7754 12.2158)">
	</image>
	<image width="926" height="922" xlink:href="FAC801BBC55389ED.png"  transform="matrix(0.24 0 0 0.24 70.6367 16.7793)">
	</image>
	<path fill="#FFFFFF" d="M232.5,224.4c-0.7,0-1.4,0.1-2.1,0.3c-0.7,0.2-1.2,0.5-1.8,0.9c-14.2,7.2-30.2,11.4-47.2,11.7
		c-0.6,0-1.1,0-1.7,0c-0.1,0-0.1,0-0.2,0c-60.5,0-108.5-47.6-108.5-108.5c0-16,3.5-31.2,9.7-44.9c10.7-23.5,47.6-62,98.8-63.6
		c-39.4-1-72.2,24.8-79.3,30.4c-0.1,0.1-0.2,0.1-0.2,0.2c-0.8,0.6-1.6,1.2-2.3,1.9c-0.1,0.1-0.2,0.2-0.3,0.3c-0.7,0.6-1.3,1.1-2,1.7
		c-0.2,0.2-0.5,0.4-0.7,0.6c-0.6,0.5-1.1,1-1.6,1.5c-0.2,0.2-0.4,0.4-0.7,0.6c-0.7,0.7-1.5,1.3-2.2,2c-0.1,0.1-0.2,0.2-0.2,0.2
		c-0.6,0.6-1.3,1.2-1.9,1.9c-0.2,0.2-0.4,0.4-0.7,0.7c-0.5,0.5-1,1.1-1.5,1.6c-0.2,0.2-0.4,0.4-0.6,0.6c-0.7,0.7-1.4,1.5-2,2.2
		c-0.1,0.1-0.1,0.1-0.2,0.2c-0.6,0.7-1.2,1.4-1.8,2.1c-0.2,0.2-0.4,0.5-0.6,0.7c-0.5,0.6-1,1.1-1.4,1.7c-0.2,0.2-0.4,0.4-0.6,0.7
		c-0.6,0.8-1.3,1.6-1.9,2.3c0,0-0.1,0.1-0.1,0.1c-0.6,0.8-1.2,1.5-1.8,2.3c-0.2,0.2-0.4,0.5-0.5,0.7c-0.4,0.6-0.9,1.2-1.3,1.8
		c-0.2,0.2-0.3,0.5-0.5,0.7c-0.6,0.8-1.2,1.7-1.7,2.5c0,0,0,0,0,0c-0.6,0.8-1.1,1.7-1.6,2.5c-0.2,0.3-0.3,0.5-0.5,0.8
		c-0.4,0.6-0.8,1.3-1.2,1.9c-0.2,0.3-0.3,0.5-0.5,0.8c-0.5,0.9-1,1.7-1.5,2.6c-2.8,4.8-5.3,9.8-7.4,14.9c-7.1,16.7-11,35-11,54.3
		c0,70.3,52.2,128.4,119.9,137.7c1.1,0.2,2.3,0.3,3.5,0.4c0.9,0.1,1.9,0.1,2.9,0.1c3,0,5.9-0.4,8.8-1c5.7-1.4,10.9-4.1,15.2-7.8
		c1.3-1.1,2.5-2.3,3.6-3.5c1.7-1.7,3.3-3.4,4.8-5.2c13.8-15.7,23.5-35.1,27.6-56.5C233,224.5,232.8,224.4,232.5,224.4z"/>
	<g>
		<g>
			<path fill="#5F6676" d="M179.6,20.5c-0.1,0-0.2,0-0.3,0c0,0,0,0,0.1,0C179.4,20.5,179.5,20.5,179.6,20.5z"/>
			<path fill="#606776" d="M179.4,20.5C179.3,20.5,179.3,20.5,179.4,20.5c-1.7-0.1-3.4,0-5,0c0.3,0.1,0.7,0.1,1,0.2
				C176.7,20.6,178,20.5,179.4,20.5z"/>
			<path fill="#616777" d="M175.3,20.7c-0.3-0.1-0.7-0.1-1-0.2c-1.8,0.1-3.5,0.2-5.3,0.3c0.7,0.1,1.5,0.2,2.2,0.2
				C172.6,20.9,174,20.8,175.3,20.7z"/>
			<path fill="#616877" d="M171.2,21.1c-0.7-0.1-1.5-0.2-2.2-0.2c-1.7,0.2-3.5,0.4-5.2,0.6c1,0,2,0.1,3,0.2
				C168.3,21.4,169.8,21.2,171.2,21.1z"/>
			<path fill="#626978" d="M162.4,22.5c1.5-0.3,3-0.6,4.5-0.8c-1-0.1-2-0.2-3-0.2c-1.9,0.3-3.8,0.6-5.6,1c0.6,0,1.2,0,1.8,0
				C160.8,22.4,161.6,22.4,162.4,22.5z"/>
			<path fill="#636979" d="M162.4,22.5c-0.8,0-1.6-0.1-2.4-0.1c-0.6,0-1.2,0-1.8,0c-1.9,0.4-3.7,0.8-5.5,1.3
				c1.7-0.1,3.4-0.2,5.1-0.3C159.3,23.1,160.9,22.8,162.4,22.5z"/>
			<path fill="#646A79" d="M157.8,23.5c-1.7,0-3.4,0.1-5.1,0.3c-2.1,0.5-4.1,1.1-6.2,1.8c2.1-0.3,4.3-0.6,6.5-0.8
				C154.6,24.3,156.2,23.9,157.8,23.5z"/>
			<path fill="#656B7A" d="M153.1,24.7c-2.2,0.2-4.3,0.4-6.5,0.8c-2.3,0.7-4.6,1.5-6.8,2.4c2.7-0.7,5.4-1.2,8.2-1.6
				C149.7,25.8,151.4,25.2,153.1,24.7z"/>
			<path fill="#656B7B" d="M148,26.3c-2.8,0.4-5.5,0.9-8.2,1.6c-2.7,1-5.3,2.2-7.8,3.3c3.6-1.2,7.2-2.2,10.9-3
				C144.6,27.6,146.3,26.9,148,26.3z"/>
			<path fill="#666C7B" d="M143,28.2c-3.7,0.8-7.3,1.7-10.9,3c-3.8,1.8-7.4,3.6-10.7,5.5c5.3-2.6,10.7-4.6,16.2-6.1
				C139.3,29.8,141.1,29,143,28.2z"/>
			<path fill="#676D7C" d="M131.9,33.4c1.9-1,3.7-1.9,5.7-2.8c-5.5,1.5-10.9,3.6-16.2,6.1c-10.5,6-18,11.8-21,14.2
				c-0.1,0.1-0.2,0.1-0.2,0.2c-0.8,0.6-1.6,1.2-2.3,1.9c-0.1,0.1-0.2,0.2-0.3,0.3c-0.7,0.6-1.3,1.1-2,1.7c-0.2,0.2-0.5,0.4-0.7,0.6
				c-0.6,0.5-1.1,1-1.6,1.5c-0.2,0.2-0.4,0.4-0.7,0.6c-0.7,0.7-1.5,1.3-2.2,2c-0.1,0.1-0.2,0.2-0.2,0.2c-0.6,0.6-1.3,1.2-1.9,1.9
				c-0.2,0.2-0.4,0.4-0.7,0.7c-0.5,0.5-1,1.1-1.5,1.6c-0.2,0.2-0.4,0.4-0.6,0.6c-0.7,0.7-1.4,1.5-2,2.2c-0.1,0.1-0.1,0.1-0.2,0.2
				c-0.6,0.7-1.2,1.4-1.8,2.1c-0.2,0.2-0.4,0.5-0.6,0.7c-0.5,0.6-1,1.1-1.4,1.7c-0.2,0.2-0.4,0.4-0.6,0.7c-0.6,0.8-1.3,1.6-1.9,2.3
				c0,0-0.1,0.1-0.1,0.1c-0.6,0.8-1.2,1.5-1.8,2.3c-0.2,0.2-0.4,0.5-0.5,0.7c-0.4,0.6-0.9,1.2-1.3,1.8c-0.2,0.2-0.3,0.5-0.5,0.7
				c-0.6,0.8-1.2,1.7-1.7,2.5c0,0,0,0,0,0c-0.6,0.8-1.1,1.7-1.6,2.5c-0.2,0.3-0.3,0.5-0.5,0.8c-0.4,0.6-0.8,1.3-1.2,1.9
				c-0.2,0.3-0.3,0.5-0.5,0.8c-0.5,0.9-1,1.7-1.5,2.6c-0.7,1.3-1.5,2.6-2.2,3.9C81.8,64.4,105.4,42.5,131.9,33.4z"/>
			<path fill="#686D7C" d="M126,36.7c1.9-1.1,3.9-2.3,5.9-3.3c-26.4,9.2-50.1,31-68.5,61.6c-1.7,3.1-3.2,6.3-4.6,9.6
				c1.6-2.9,3.2-5.8,4.9-8.6C80.6,67.7,102,46.9,126,36.7z"/>
			<path fill="#686E7D" d="M119.8,40.7c2-1.4,4.1-2.7,6.2-4C102,46.9,80.6,67.7,63.6,96c-1.7,2.8-3.3,5.6-4.9,8.6
				c-0.2,0.5-0.4,1-0.6,1.4c-0.8,1.9-1.5,3.7-2.2,5.6c2.6-5.2,5.3-10.1,8.2-14.9C79.4,71.1,98.5,51.7,119.8,40.7z"/>
			<path fill="#696E7E" d="M113.2,45.5c2.1-1.6,4.3-3.2,6.5-4.8C98.5,51.7,79.4,71.1,64,96.7c-2.9,4.8-5.6,9.7-8.2,14.9
				c-0.7,1.9-1.3,3.7-2,5.6c3.3-6.9,6.8-13.5,10.6-19.8C78.1,74.7,94.7,56.8,113.2,45.5z"/>
			<path fill="#6A6F7E" d="M106.6,51c2.1-1.9,4.3-3.7,6.6-5.5c-18.5,11.3-35.1,29.2-48.8,52c-3.8,6.2-7.3,12.8-10.6,19.8
				c-0.5,1.6-1,3.3-1.5,5c3.8-8.5,8-16.5,12.5-24C76.8,78.4,90.9,62.3,106.6,51z"/>
			<path fill="#6B707F" d="M100.3,57c2-2,4.1-4,6.3-6C90.9,62.3,76.8,78.4,64.9,98.2c-4.5,7.5-8.7,15.5-12.5,24
				c-0.4,1.4-0.8,2.9-1.1,4.3c4.3-9.8,9-19.1,14.1-27.6C75.5,82,87.3,67.8,100.3,57z"/>
			<path fill="#6C7080" d="M94.8,63c1.7-2,3.6-4,5.5-6c-13,10.8-24.8,25-35,41.9c-5.1,8.5-9.9,17.8-14.1,27.6
				c-0.3,1.3-0.6,2.6-0.9,4c4.6-11.1,9.8-21.4,15.5-30.9C74.3,85.4,84.1,73,94.8,63z"/>
			<path fill="#6C7180" d="M66.2,100.4c7.2-12,15.3-22.6,24-31.6c1.4-1.9,2.9-3.8,4.6-5.7c-10.7,10-20.4,22.3-29,36.6
				c-5.7,9.5-10.9,19.8-15.5,30.9c-0.3,1.2-0.5,2.4-0.7,3.6c0.1-0.4,0.3-0.7,0.4-1.1C54.7,121.3,60.2,110.4,66.2,100.4z"/>
			<path fill="#6D7281" d="M66.6,101.1c6.1-10.2,12.8-19.3,20-27.4c1.1-1.6,2.3-3.3,3.5-5c-8.7,9-16.8,19.6-24,31.6
				c-6,10-11.5,20.9-16.2,32.7c-0.1,0.3-0.3,0.7-0.4,1.1c-0.2,1.1-0.4,2.2-0.6,3.4c0.5-1.3,1-2.6,1.5-3.9
				C55.2,122,60.6,111,66.6,101.1z"/>
			<path fill="#6E7382" d="M67.1,101.8c5.2-8.7,10.9-16.6,16.9-23.8c0.8-1.4,1.7-2.8,2.7-4.3c-7.2,8-13.9,17.2-20,27.4
				c-6,9.9-11.4,20.8-16.2,32.5c-0.5,1.3-1,2.6-1.5,3.9c-0.2,1.1-0.3,2.1-0.5,3.2c0.8-2.2,1.7-4.4,2.5-6.5
				C55.7,122.6,61.1,111.7,67.1,101.8z"/>
			<path fill="#6F7382" d="M81.9,81.8c0.6-1.2,1.3-2.5,2.1-3.8c-6,7.1-11.7,15.1-16.9,23.8c-6,9.9-11.4,20.8-16.1,32.4
				c-0.9,2.1-1.7,4.3-2.5,6.5c-0.1,1-0.3,2-0.4,3c5.5-15,12-28.8,19.4-41.1C72,95.1,76.8,88.2,81.9,81.8z"/>
			<path fill="#6F7483" d="M80.4,85c0.1-0.3,0.3-0.7,0.4-1c0.3-0.7,0.7-1.5,1.1-2.2c-5.1,6.3-9.9,13.3-14.4,20.7
				c-7.4,12.3-14,26.1-19.4,41.1c-0.1,1-0.2,1.9-0.3,2.9c5.6-15.8,12.4-30.4,20.2-43.3C71.8,96.8,76,90.7,80.4,85z"/>
			<path fill="#707584" d="M79.2,87.9c0.4-1,0.8-2,1.3-2.9c-4.4,5.7-8.6,11.8-12.5,18.3c-7.8,12.9-14.6,27.5-20.2,43.3
				c-0.1,0.9-0.2,1.8-0.2,2.7c5.7-16.6,12.8-31.8,20.9-45.3C71.8,98.3,75.4,93,79.2,87.9z"/>
			<path fill="#717584" d="M78.1,90.7c0.4-0.9,0.7-1.9,1.1-2.8c-3.8,5-7.4,10.4-10.8,16.1c-8.1,13.4-15.1,28.7-20.9,45.3
				c-0.1,0.9-0.1,1.7-0.2,2.6c5.8-17.3,13.1-33.2,21.5-47.1C71.7,99.8,74.8,95.1,78.1,90.7z"/>
			<path fill="#727685" d="M77.1,93.4c0.3-0.9,0.6-1.8,1-2.7c-3.2,4.4-6.3,9.1-9.3,14c-8.4,13.9-15.6,29.8-21.5,47.1
				c0,0.8-0.1,1.6-0.1,2.5c5.9-18,13.4-34.5,22-48.9C71.7,101.3,74.4,97.3,77.1,93.4z"/>
			<path fill="#737786" d="M76.3,96c0.3-0.8,0.6-1.7,0.8-2.5c-2.7,3.8-5.4,7.8-7.9,12c-8.7,14.4-16.1,30.9-22,48.9
				c0,0.8-0.1,1.6-0.1,2.5c6-18.7,13.6-35.8,22.6-50.6C71.8,102.7,74,99.3,76.3,96z"/>
			<path fill="#737786" d="M75.5,98.5c0.2-0.8,0.5-1.7,0.8-2.5c-2.3,3.3-4.5,6.7-6.6,10.2c-8.9,14.9-16.6,31.9-22.6,50.6
				c0,0.8,0,1.5,0,2.3c6.1-19.3,13.8-36.9,23-52.2C71.8,104,73.6,101.2,75.5,98.5z"/>
			<path fill="#747887" d="M74.8,100.8c0.2-0.8,0.4-1.6,0.7-2.4c-1.8,2.7-3.7,5.5-5.4,8.4c-9.2,15.3-17,32.8-23,52.2
				c0,0.4,0,0.8,0,1.2c0,0.3,0,0.7,0,1c6.1-19.9,14.1-38,23.5-53.7C71.9,105.3,73.4,103.1,74.8,100.8z"/>
			<path fill="#757988" d="M74.2,103.2c0.2-0.8,0.4-1.6,0.6-2.3c-1.5,2.2-2.9,4.5-4.3,6.8c-9.4,15.6-17.4,33.7-23.5,53.7
				c0,0.7,0,1.5,0,2.2c6.1-20.5,14.2-39.1,23.9-55.2C72,106.6,73.1,104.9,74.2,103.2z"/>
			<path fill="#767A89" d="M73.7,105.4c0.2-0.7,0.3-1.5,0.5-2.2c-1.1,1.7-2.2,3.4-3.3,5.2c-9.6,16-17.7,34.6-23.9,55.2
				c0,0.7,0,1.4,0.1,2.1c6.2-21.1,14.4-40.1,24.2-56.5C72.2,107.8,72.9,106.6,73.7,105.4z"/>
			<path fill="#777A89" d="M73.3,107.5c0.1-0.7,0.3-1.4,0.4-2.1c-0.8,1.2-1.6,2.5-2.3,3.8c-9.8,16.4-18.1,35.4-24.2,56.5
				c0,0.7,0.1,1.4,0.1,2.1c6.2-21.6,14.5-41.1,24.6-57.8C72.3,109,72.8,108.3,73.3,107.5z"/>
			<path fill="#777B8A" d="M72.9,109.6c0.1-0.7,0.3-1.4,0.4-2.1c-0.5,0.8-1,1.5-1.4,2.3c-10,16.7-18.4,36.2-24.6,57.8
				c0,0.7,0.1,1.3,0.1,2c6.2-22.1,14.7-42.1,24.9-59.1C72.5,110.2,72.7,109.9,72.9,109.6z"/>
			<path fill="#787C8B" d="M72.9,109.6c-0.2,0.3-0.4,0.7-0.6,1c-10.2,17-18.7,37-24.9,59.1c0,0.6,0.1,1.3,0.1,1.9
				c6.2-22.4,14.7-42.7,25-60C72.6,110.9,72.8,110.2,72.9,109.6z"/>
			<path fill="#797C8B" d="M72.5,111.6c-10.3,17.2-18.8,37.5-25,60c0.1,0.6,0.1,1.3,0.2,1.9c6-22.4,14.4-42.6,24.6-59.9
				C72.3,112.9,72.4,112.2,72.5,111.6z"/>
			<path fill="#7A7D8C" d="M72.2,113.6c-10.2,17.3-18.5,37.5-24.6,59.9c0.1,0.6,0.1,1.2,0.2,1.8C53.7,153,62,132.7,72,115.4
				C72.1,114.8,72.1,114.2,72.2,113.6z"/>
			<path fill="#7B7E8D" d="M72,115.4c-10,17.3-18.2,37.5-24.1,59.9c0.1,0.6,0.1,1.2,0.2,1.8c5.7-22.3,13.8-42.5,23.7-59.8
				C71.8,116.7,71.9,116.1,72,115.4z"/>
			<path fill="#7B7F8D" d="M71.6,119.1c0.1-0.6,0.1-1.2,0.2-1.8c-9.9,17.3-17.9,37.5-23.7,59.8c0.1,0.6,0.1,1.2,0.2,1.8
				c0-0.2,0.1-0.4,0.1-0.6C54,156.3,61.9,136.3,71.6,119.1z"/>
			<path fill="#7C7F8E" d="M71.6,119.1c-9.7,17.2-17.5,37.1-23.2,59.1c-0.1,0.2-0.1,0.4-0.1,0.6c0.1,0.6,0.2,1.1,0.2,1.7
				c5.5-22.2,13.3-42.3,22.9-59.7C71.5,120.3,71.5,119.7,71.6,119.1z"/>
			<path fill="#7D808F" d="M71.4,120.9c-9.6,17.3-17.4,37.5-22.9,59.7c0.1,0.6,0.2,1.1,0.3,1.7c5.4-22.1,13.1-42.3,22.5-59.6
				C71.4,122,71.4,121.5,71.4,120.9z"/>
			<path fill="#7E8190" d="M71.3,122.6c-9.5,17.4-17.2,37.5-22.5,59.6c0.1,0.5,0.2,1.1,0.3,1.6c5.3-22.1,12.8-42.2,22.2-59.6
				C71.3,123.7,71.3,123.2,71.3,122.6z"/>
			<path fill="#7F8290" d="M71.2,124.3c-9.4,17.4-16.9,37.5-22.2,59.6c0.1,0.5,0.2,1.1,0.3,1.6c5.1-22,12.6-42.1,21.8-59.5
				C71.2,125.4,71.2,124.8,71.2,124.3z"/>
			<path fill="#7F8291" d="M71.2,126c-9.3,17.4-16.7,37.5-21.8,59.5c0.1,0.5,0.2,1,0.3,1.6c5-22,12.4-42.1,21.5-59.5
				C71.2,127,71.2,126.5,71.2,126z"/>
			<path fill="#808392" d="M71.1,128.9c0-0.5,0-0.9,0-1.4C62,144.9,54.7,165,49.6,187c0.1,0.5,0.2,1,0.3,1.5
				c4.9-22,12.2-42,21.2-59.4C71.1,129.1,71.1,129,71.1,128.9z"/>
			<path fill="#818492" d="M71.1,129.1c-9,17.4-16.3,37.5-21.2,59.4c0.1,0.5,0.2,1,0.3,1.5c4.8-21.9,12-42,20.9-59.4
				C71.2,130.2,71.1,129.7,71.1,129.1z"/>
			<path fill="#828593" d="M71.2,130.7c-8.9,17.4-16.1,37.5-20.9,59.4c0.1,0.5,0.2,1,0.3,1.5c4.7-21.9,11.8-41.9,20.6-59.4
				C71.2,131.7,71.2,131.2,71.2,130.7z"/>
			<path fill="#838594" d="M71.2,132.2c-8.8,17.4-15.9,37.5-20.6,59.4c0.1,0.5,0.2,1,0.3,1.5c4.6-21.9,11.6-41.9,20.3-59.3
				C71.2,133.2,71.2,132.7,71.2,132.2z"/>
			<path fill="#848695" d="M71.2,133.7c-8.7,17.4-15.7,37.5-20.3,59.3c0.1,0.5,0.2,1,0.4,1.4c4.5-21.8,11.4-41.9,20-59.3
				C71.3,134.7,71.3,134.2,71.2,133.7z"/>
			<path fill="#848795" d="M71.3,135.2c-8.7,17.4-15.5,37.5-20,59.3c0.1,0.5,0.2,0.9,0.4,1.4c4.4-21.8,11.2-41.8,19.8-59.2
				C71.4,136.1,71.3,135.6,71.3,135.2z"/>
			<path fill="#858896" d="M71.4,136.6c-8.6,17.4-15.3,37.5-19.8,59.2c0.1,0.5,0.2,0.9,0.4,1.4c4.4-21.8,11-41.8,19.5-59.2
				C71.5,137.5,71.4,137.1,71.4,136.6z"/>
			<path fill="#868997" d="M71.5,138C63,155.5,56.4,175.5,52,197.2c0.1,0.5,0.2,0.9,0.4,1.4c4.3-21.7,10.8-41.7,19.2-59.2
				C71.6,138.9,71.5,138.5,71.5,138z"/>
			<path fill="#878998" d="M71.6,139.4c-8.4,17.5-15,37.5-19.2,59.2c0.1,0.4,0.3,0.9,0.4,1.3c4.2-21.7,10.7-41.7,19-59.2
				C71.7,140.3,71.7,139.9,71.6,139.4z"/>
			<path fill="#888A99" d="M71.8,140.8c-8.3,17.5-14.8,37.4-19,59.2c0.1,0.4,0.3,0.9,0.4,1.3c4.1-21.7,10.5-41.7,18.7-59.1
				C71.9,141.7,71.8,141.2,71.8,140.8z"/>
			<path fill="#898B99" d="M71.9,142.1c-8.2,17.5-14.6,37.4-18.7,59.1c0.1,0.4,0.3,0.9,0.4,1.3c4-21.7,10.3-41.6,18.5-59.1
				C72,143,72,142.5,71.9,142.1z"/>
			<path fill="#8A8C9A" d="M72.1,143.4c-8.2,17.5-14.5,37.4-18.5,59.1c0.1,0.4,0.3,0.9,0.4,1.3c3.9-21.6,10.2-41.6,18.2-59.1
				C72.2,144.3,72.1,143.9,72.1,143.4z"/>
			<path fill="#8A8D9B" d="M72.2,144.7c-8.1,17.5-14.3,37.4-18.2,59.1c0.1,0.4,0.3,0.8,0.4,1.2c3.8-21.6,10-41.6,18-59
				C72.4,145.6,72.3,145.2,72.2,144.7z"/>
			<path fill="#8B8E9C" d="M72.4,146c-8,17.5-14.2,37.4-18,59c0.1,0.4,0.3,0.8,0.4,1.2c3.8-21.6,9.9-41.5,17.8-59
				C72.6,146.8,72.5,146.4,72.4,146z"/>
			<path fill="#8C8E9C" d="M72.6,147.3c-7.9,17.5-14,37.4-17.8,59c0.1,0.4,0.3,0.8,0.4,1.2c3.7-21.6,9.7-41.5,17.6-59
				C72.8,148.1,72.7,147.7,72.6,147.3z"/>
			<path fill="#8D8F9D" d="M72.8,148.5C65,166,59,185.9,55.3,207.5c0.1,0.4,0.3,0.8,0.4,1.2c3.6-21.5,9.5-41.5,17.3-59
				C73,149.3,72.9,148.9,72.8,148.5z"/>
			<path fill="#8E909E" d="M73.1,149.7c-7.8,17.5-13.7,37.4-17.3,59c0.1,0.4,0.3,0.8,0.4,1.2c3.5-21.5,9.4-41.4,17.1-58.9
				C73.2,150.5,73.1,150.1,73.1,149.7z"/>
			<path fill="#8F919F" d="M73.3,150.9c-7.7,17.5-13.6,37.4-17.1,58.9c0.1,0.4,0.3,0.8,0.5,1.2c3.5-21.5,9.3-41.4,16.9-58.9
				C73.5,151.7,73.4,151.3,73.3,150.9z"/>
			<path fill="#90929F" d="M73.5,152.1c-7.7,17.5-13.5,37.4-16.9,58.9c0.1,0.4,0.3,0.8,0.5,1.1c3.4-21.5,9.1-41.4,16.7-58.9
				C73.7,152.9,73.6,152.5,73.5,152.1z"/>
			<path fill="#9193A0" d="M73.8,153.3c-7.6,17.5-13.4,37.4-16.7,58.9c0.2,0.4,0.3,0.8,0.5,1.1c3.3-21.5,9-41.4,16.5-58.9
				C74,154,73.9,153.7,73.8,153.3z"/>
			<path fill="#9293A1" d="M74.1,154.4c-7.6,17.5-13.2,37.4-16.5,58.9c0.2,0.4,0.3,0.7,0.5,1.1c3.2-21.5,8.8-41.4,16.3-58.9
				C74.2,155.2,74.1,154.8,74.1,154.4z"/>
			<path fill="#9294A2" d="M74.3,155.5C66.8,173,61.2,192.9,58,214.4c0.2,0.4,0.3,0.7,0.5,1.1c3.2-21.5,8.7-41.3,16.1-58.8
				C74.5,156.3,74.4,155.9,74.3,155.5z"/>
			<path fill="#9395A3" d="M74.6,156.7c-7.4,17.5-13,37.4-16.1,58.8c0.2,0.4,0.3,0.7,0.5,1.1c3.1-21.4,8.6-41.3,16-58.8
				C74.8,157.4,74.7,157,74.6,156.7z"/>
			<path fill="#9496A3" d="M74.9,157.8c-7.4,17.5-12.9,37.4-16,58.8c0.2,0.4,0.3,0.7,0.5,1.1c3-21.4,8.4-41.3,15.8-58.8
				C75.1,158.5,75,158.1,74.9,157.8z"/>
			<path fill="#9597A4" d="M75.2,158.9c-7.3,17.5-12.7,37.4-15.8,58.8c0.2,0.4,0.3,0.7,0.5,1.1c3-21.4,8.3-41.3,15.6-58.8
				C75.4,159.6,75.3,159.2,75.2,158.9z"/>
			<path fill="#9698A5" d="M75.5,159.9c-7.3,17.5-12.6,37.4-15.6,58.8c0.2,0.3,0.3,0.7,0.5,1c2.9-21.4,8.2-41.3,15.4-58.8
				C75.7,160.6,75.6,160.3,75.5,159.9z"/>
			<path fill="#9799A6" d="M75.8,161c-7.2,17.5-12.5,37.4-15.4,58.8c0.2,0.3,0.3,0.7,0.5,1c2.8-21.4,8.1-41.3,15.2-58.8
				C76,161.7,75.9,161.3,75.8,161z"/>
			<path fill="#9899A7" d="M76.1,162c-7.2,17.5-12.4,37.4-15.2,58.8c0.2,0.3,0.3,0.7,0.5,1c2.8-21.4,7.9-41.3,15.1-58.8
				C76.3,162.7,76.2,162.4,76.1,162z"/>
			<path fill="#999AA8" d="M76.5,163c-7.1,17.5-12.3,37.4-15.1,58.8c0.2,0.3,0.3,0.7,0.5,1c2.7-21.4,7.8-41.2,14.9-58.7
				C76.7,163.7,76.6,163.4,76.5,163z"/>
			<path fill="#9A9BA8" d="M76.8,164.1c-7.1,17.5-12.2,37.4-14.9,58.7c0.2,0.3,0.3,0.7,0.5,1c2.6-21.4,7.7-41.2,14.7-58.8
				C77,164.7,76.9,164.4,76.8,164.1z"/>
			<path fill="#9B9CA9" d="M77.1,165.1c-7,17.5-12.1,37.4-14.7,58.8c0.2,0.3,0.3,0.7,0.5,1c2.6-21.4,7.6-41.2,14.6-58.7
				C77.4,165.7,77.2,165.4,77.1,165.1z"/>
			<path fill="#9C9DAA" d="M77.5,166.1c-7,17.5-12,37.4-14.6,58.7c0.2,0.3,0.3,0.6,0.5,1c2.5-21.3,7.5-41.2,14.4-58.7
				C77.7,166.7,77.6,166.4,77.5,166.1z"/>
			<path fill="#9D9EAB" d="M77.8,167c-6.9,17.5-11.9,37.4-14.4,58.7c0.2,0.3,0.3,0.6,0.5,1c2.4-21.3,7.3-41.2,14.2-58.7
				C78.1,167.7,77.9,167.4,77.8,167z"/>
			<path fill="#9E9FAC" d="M78.2,168c-6.9,17.5-11.8,37.4-14.2,58.7c0.2,0.3,0.3,0.6,0.5,0.9c2.4-21.3,7.2-41.2,14.1-58.7
				C78.4,168.6,78.3,168.3,78.2,168z"/>
			<path fill="#9EA0AD" d="M78.5,168.9c-6.9,17.5-11.7,37.4-14.1,58.7c0.2,0.3,0.3,0.6,0.5,0.9c2.3-21.3,7.1-41.2,13.9-58.7
				C78.8,169.6,78.7,169.3,78.5,168.9z"/>
			<path fill="#9FA1AD" d="M78.9,169.9c-6.8,17.5-11.6,37.4-13.9,58.7c0.2,0.3,0.3,0.6,0.5,0.9c2.2-21.3,7-41.2,13.8-58.7
				C79.2,170.5,79,170.2,78.9,169.9z"/>
			<path fill="#A0A1AE" d="M79.3,170.8c-6.8,17.5-11.5,37.4-13.8,58.7c0.2,0.3,0.4,0.6,0.5,0.9c2.2-21.3,6.9-41.2,13.6-58.7
				C79.5,171.4,79.4,171.1,79.3,170.8z"/>
			<path fill="#A1A2AF" d="M79.7,171.7c-6.7,17.5-11.4,37.4-13.6,58.7c0.2,0.3,0.4,0.6,0.5,0.9c2.1-21.3,6.8-41.2,13.5-58.7
				C79.9,172.3,79.8,172,79.7,171.7z"/>
			<path fill="#A2A3B0" d="M80.1,172.6c-6.7,17.5-11.4,37.4-13.5,58.7c0.2,0.3,0.4,0.6,0.5,0.9c2-21.3,6.7-41.2,13.3-58.7
				C80.3,173.2,80.2,172.9,80.1,172.6z"/>
			<path fill="#A3A4B1" d="M80.4,173.5c-6.7,17.5-11.3,37.4-13.3,58.7c0.2,0.3,0.4,0.6,0.5,0.9c2-21.3,6.6-41.2,13.2-58.7
				C80.7,174.1,80.6,173.8,80.4,173.5z"/>
			<path fill="#A4A5B2" d="M80.8,174.4c-6.6,17.5-11.2,37.4-13.2,58.7c0.2,0.3,0.4,0.6,0.5,0.9c1.9-21.3,6.5-41.2,13-58.7
				C81.1,175,81,174.7,80.8,174.4z"/>
			<path fill="#A5A6B3" d="M81.2,175.3c-6.6,17.5-11.1,37.4-13,58.7c0.2,0.3,0.4,0.6,0.5,0.9c1.9-21.3,6.3-41.2,12.9-58.7
				C81.5,175.8,81.4,175.6,81.2,175.3z"/>
			<path fill="#A6A7B4" d="M81.6,176.1c-6.5,17.5-11,37.4-12.9,58.7c0.2,0.3,0.4,0.6,0.5,0.8c1.8-21.3,6.2-41.2,12.8-58.7
				C81.9,176.7,81.8,176.4,81.6,176.1z"/>
			<path fill="#A7A8B4" d="M82.1,177c-6.5,17.5-11,37.4-12.8,58.7c0.2,0.3,0.4,0.6,0.6,0.8c1.7-21.3,6.1-41.2,12.6-58.7
				C82.3,177.5,82.2,177.3,82.1,177z"/>
			<path fill="#A8A9B5" d="M82.5,177.8c-6.5,17.5-10.9,37.4-12.6,58.7c0.2,0.3,0.4,0.6,0.6,0.8c1.7-21.3,6-41.2,12.5-58.8
				C82.7,178.4,82.6,178.1,82.5,177.8z"/>
			<path fill="#A9AAB6" d="M82.9,178.6c-6.4,17.5-10.8,37.4-12.5,58.8c0.2,0.3,0.4,0.5,0.6,0.8c1.6-21.3,5.9-41.2,12.3-58.8
				C83.2,179.2,83,178.9,82.9,178.6z"/>
			<path fill="#AAABB7" d="M83.3,179.5C76.9,197,72.6,216.9,71,238.2c0.2,0.3,0.4,0.5,0.6,0.8c1.6-21.3,5.8-41.2,12.2-58.8
				C83.6,180,83.4,179.7,83.3,179.5z"/>
			<path fill="#ABACB8" d="M83.7,180.3c-6.4,17.5-10.6,37.5-12.2,58.8c0.2,0.3,0.4,0.5,0.6,0.8c1.5-21.3,5.7-41.2,12.1-58.8
				C84,180.8,83.9,180.5,83.7,180.3z"/>
			<path fill="#ACADB9" d="M84.2,181.1c-6.4,17.5-10.6,37.5-12.1,58.8c0.2,0.3,0.4,0.5,0.6,0.8c1.4-21.3,5.6-41.2,11.9-58.8
				C84.4,181.6,84.3,181.4,84.2,181.1z"/>
			<path fill="#ADAEBA" d="M84.6,181.9c-6.3,17.5-10.5,37.5-11.9,58.8c0.2,0.3,0.4,0.5,0.6,0.8c1.4-21.3,5.5-41.2,11.8-58.8
				C84.9,182.4,84.7,182.1,84.6,181.9z"/>
			<path fill="#AEAFBB" d="M85,182.7c-6.3,17.5-10.4,37.5-11.8,58.8c0.2,0.3,0.4,0.5,0.6,0.8c1.3-21.3,5.4-41.3,11.7-58.8
				C85.3,183.2,85.2,182.9,85,182.7z"/>
			<path fill="#AFB0BB" d="M85.5,183.4c-6.3,17.5-10.4,37.5-11.7,58.8c0.2,0.3,0.4,0.5,0.6,0.8c1.3-21.3,5.3-41.3,11.6-58.8
				C85.8,183.9,85.6,183.7,85.5,183.4z"/>
			<path fill="#B0B1BC" d="M85.9,184.2c-6.2,17.5-10.3,37.5-11.6,58.8c0.2,0.3,0.4,0.5,0.6,0.8c1.2-21.3,5.2-41.3,11.4-58.8
				C86.2,184.7,86.1,184.5,85.9,184.2z"/>
			<path fill="#B1B2BD" d="M86.4,185c-6.2,17.5-10.2,37.5-11.4,58.8c0.2,0.3,0.4,0.5,0.6,0.8c1.1-21.3,5.1-41.3,11.3-58.8
				C86.7,185.5,86.5,185.2,86.4,185z"/>
			<path fill="#B2B2BE" d="M86.8,185.7c-6.2,17.5-10.2,37.5-11.3,58.8c0.2,0.3,0.4,0.5,0.6,0.8c1.1-21.3,5-41.3,11.2-58.9
				C87.1,186.2,87,186,86.8,185.7z"/>
			<path fill="#B3B3BF" d="M87.3,186.4C81.1,204,77.2,224,76.1,245.3c0.2,0.2,0.4,0.5,0.6,0.7c1-21.3,4.9-41.3,11-58.9
				C87.6,186.9,87.4,186.7,87.3,186.4z"/>
			<path fill="#B4B4C0" d="M87.7,187.2c-6.1,17.5-10,37.5-11,58.9c0.2,0.2,0.4,0.5,0.6,0.7c1-21.3,4.8-41.3,10.9-58.9
				C88,187.7,87.9,187.4,87.7,187.2z"/>
			<path fill="#B5B5C1" d="M88.2,187.9c-6.1,17.5-10,37.5-10.9,58.9c0.2,0.2,0.4,0.5,0.6,0.7c0.9-21.3,4.7-41.4,10.8-58.9
				C88.5,188.4,88.3,188.1,88.2,187.9z"/>
			<path fill="#B6B6C2" d="M88.6,188.6c-6.1,17.5-9.9,37.6-10.8,58.9c0.2,0.2,0.4,0.5,0.6,0.7c0.8-21.4,4.6-41.4,10.7-58.9
				C88.9,189.1,88.8,188.9,88.6,188.6z"/>
			<path fill="#B7B7C3" d="M89.1,189.3c-6.1,17.5-9.8,37.6-10.7,58.9c0.2,0.2,0.4,0.5,0.6,0.7c0.8-21.4,4.5-41.4,10.5-58.9
				C89.4,189.8,89.3,189.6,89.1,189.3z"/>
			<path fill="#B8B8C4" d="M89.6,190c-6,17.5-9.8,37.6-10.5,58.9c0.2,0.2,0.4,0.5,0.6,0.7c0.7-21.4,4.4-41.4,10.4-58.9
				C89.9,190.5,89.7,190.3,89.6,190z"/>
			<path fill="#B9B9C5" d="M90,190.7c-6,17.5-9.7,37.6-10.4,58.9c0.2,0.2,0.4,0.5,0.6,0.7c0.6-21.4,4.3-41.4,10.3-58.9
				C90.4,191.2,90.2,191,90,190.7z"/>
			<path fill="#BABAC6" d="M90.5,191.4c-6,17.5-9.7,37.6-10.3,58.9c0.2,0.2,0.4,0.5,0.6,0.7c0.6-21.4,4.2-41.4,10.2-59
				C90.8,191.9,90.7,191.6,90.5,191.4z"/>
			<path fill="#BBBBC7" d="M91,192.1c-6,17.5-9.6,37.6-10.2,59c0.2,0.2,0.4,0.5,0.6,0.7c0.5-21.4,4.1-41.4,10.1-59
				C91.3,192.5,91.2,192.3,91,192.1z"/>
			<path fill="#BCBDC8" d="M91.5,192.8c-6,17.5-9.6,37.6-10.1,59c0.2,0.2,0.4,0.5,0.6,0.7c0.5-21.4,4-41.5,10-59
				C91.8,193.2,91.6,193,91.5,192.8z"/>
			<path fill="#BDBEC9" d="M92,193.4c-5.9,17.5-9.5,37.6-10,59c0.2,0.2,0.4,0.4,0.6,0.7c0.4-21.4,3.9-41.5,9.8-59
				C92.3,193.9,92.1,193.7,92,193.4z"/>
			<path fill="#BEBFCA" d="M92.4,194.1c-5.9,17.5-9.4,37.6-9.8,59c0.2,0.2,0.4,0.5,0.6,0.7c0.3-21.4,3.8-41.5,9.7-59
				C92.8,194.5,92.6,194.3,92.4,194.1z"/>
			<path fill="#BFC0CA" d="M92.9,194.7c-5.9,17.5-9.4,37.6-9.7,59c0.2,0.2,0.4,0.4,0.6,0.7c0.3-21.4,3.7-41.5,9.6-59.1
				C93.3,195.2,93.1,195,92.9,194.7z"/>
			<path fill="#BFC0CA" d="M233.3,224.5c-0.1,0-0.2,0-0.3,0c0,0.2,0.1,0.5,0.1,0.7C233.2,225,233.2,224.7,233.3,224.5z"/>
			<path fill="#C0C1CB" d="M233.1,225.2c0-0.2-0.1-0.5-0.1-0.7c-0.2,0-0.3,0-0.5,0c0,0-0.1,0-0.1,0c0.1,0.8,0.3,1.7,0.4,2.5
				C232.9,226.4,233,225.8,233.1,225.2z"/>
			<path fill="#C0C1CB" d="M93.4,195.4c-5.9,17.5-9.3,37.7-9.6,59.1c0.2,0.2,0.4,0.4,0.6,0.7c0.2-21.4,3.6-41.5,9.5-59.1
				C93.7,195.8,93.6,195.6,93.4,195.4z"/>
			<path fill="#C2C2CD" d="M93.9,196c-5.9,17.5-9.3,37.7-9.5,59.1c0.2,0.2,0.4,0.4,0.6,0.6c0.1-21.4,3.5-41.6,9.4-59.1
				C94.2,196.4,94.1,196.2,93.9,196z"/>
			<path fill="#C2C2CD" d="M232.8,227c-0.1-0.8-0.2-1.7-0.4-2.5c-0.2,0-0.4,0-0.6,0.1c0.2,1.4,0.4,2.8,0.6,4.2
				C232.5,228.1,232.6,227.6,232.8,227z"/>
			<path fill="#C3C3CD" d="M232.4,228.7c-0.2-1.4-0.4-2.8-0.6-4.2c-0.2,0-0.4,0.1-0.6,0.1c0.3,1.9,0.6,3.8,0.8,5.8
				C232.1,229.8,232.3,229.3,232.4,228.7z"/>
			<path fill="#C3C3CD" d="M94.4,196.7c-5.8,17.5-9.2,37.7-9.4,59.1c0.2,0.2,0.4,0.4,0.6,0.7c0.1-21.4,3.4-41.6,9.3-59.1
				C94.7,197.1,94.6,196.9,94.4,196.7z"/>
			<path fill="#C4C4CE" d="M95.4,197.9c-0.2-0.2-0.3-0.4-0.5-0.6c-5.8,17.5-9.2,37.7-9.3,59.1c0.2,0.2,0.4,0.4,0.6,0.6
				c0-0.1,0-0.2,0-0.3C86.3,235.4,89.6,215.4,95.4,197.9z"/>
			<path fill="#C4C4CE" d="M232,230.4c-0.3-1.9-0.5-3.9-0.8-5.8c-0.2,0-0.4,0.1-0.6,0.2c0.4,2.4,0.7,4.9,1,7.3
				C231.7,231.5,231.8,231,232,230.4z"/>
			<path fill="#C5C5CF" d="M95.9,198.5c-0.2-0.2-0.3-0.4-0.5-0.6c-5.8,17.5-9.1,37.5-9.1,58.9c0,0.1,0,0.2,0,0.3
				c0.2,0.2,0.4,0.4,0.6,0.6c0-0.3,0-0.6,0-0.9C86.9,235.6,90.2,215.8,95.9,198.5z"/>
			<path fill="#C5C5CF" d="M231.6,232.1c-0.3-2.5-0.7-4.9-1-7.3c0,0,0,0-0.1,0c-0.2,0.1-0.4,0.1-0.5,0.2c0.5,2.9,0.9,5.8,1.2,8.7
				C231.3,233.2,231.4,232.6,231.6,232.1z"/>
			<path fill="#C6C6D0" d="M231.1,233.7c-0.3-2.9-0.7-5.8-1.2-8.7c-0.2,0.1-0.4,0.2-0.6,0.3c0.5,3.3,1,6.6,1.3,10
				C230.8,234.8,231,234.2,231.1,233.7z"/>
			<path fill="#C6C6D0" d="M96.4,199.1c-0.2-0.2-0.3-0.4-0.5-0.6c-5.7,17.3-9,37.1-9,58.3c0,0.3,0,0.6,0,0.9
				c0.2,0.2,0.4,0.4,0.6,0.6c0-0.5,0-1,0-1.5C87.5,235.9,90.8,216.2,96.4,199.1z"/>
			<path fill="#C7C7D1" d="M230.7,235.3c-0.4-3.4-0.8-6.7-1.3-10c-0.2,0.1-0.4,0.2-0.6,0.4c0.6,3.7,1.1,7.4,1.5,11.2
				C230.4,236.3,230.5,235.8,230.7,235.3z"/>
			<path fill="#C7C7D1" d="M96.9,199.7c-0.2-0.2-0.3-0.4-0.5-0.6c-5.6,17.1-8.9,36.8-8.9,57.7c0,0.5,0,1,0,1.5
				c0.2,0.2,0.4,0.4,0.6,0.6c0-0.7,0-1.4,0-2.2C88.1,236.1,91.3,216.6,96.9,199.7z"/>
			<path fill="#C8C8D2" d="M230.2,236.9c-0.4-3.8-0.9-7.5-1.5-11.2c0,0-0.1,0-0.1,0.1c-0.2,0.1-0.3,0.2-0.5,0.2
				c0.7,4,1.2,8.2,1.6,12.4C229.9,237.9,230.1,237.4,230.2,236.9z"/>
			<path fill="#C8C8D2" d="M97.4,200.3c-0.2-0.2-0.3-0.4-0.5-0.6c-5.6,17-8.8,36.4-8.8,57.1c0,0.7,0,1.4,0,2.2
				c0.2,0.2,0.4,0.4,0.6,0.6c0-0.9,0-1.8,0-2.8C88.8,236.3,91.9,217.1,97.4,200.3z"/>
			<path fill="#C9C9D3" d="M229.7,238.4c-0.4-4.2-0.9-8.3-1.6-12.4c-0.2,0.1-0.4,0.2-0.6,0.3c0.7,4.4,1.3,9,1.7,13.6
				C229.4,239.4,229.6,238.9,229.7,238.4z"/>
			<path fill="#C9C9D3" d="M97.9,200.9c-0.2-0.2-0.3-0.4-0.5-0.6c-5.5,16.8-8.7,36-8.7,56.5c0,0.9,0,1.8,0,2.8
				c0.2,0.2,0.4,0.4,0.6,0.6c0-1.1,0-2.2,0-3.4C89.4,236.5,92.5,217.5,97.9,200.9z"/>
			<path fill="#CACAD4" d="M229.2,239.9c-0.4-4.6-1-9.2-1.7-13.6c-0.2,0.1-0.4,0.2-0.6,0.3c0.8,4.8,1.4,9.7,1.8,14.8
				C228.9,240.8,229.1,240.4,229.2,239.9z"/>
			<path fill="#CACAD4" d="M98.4,201.4c-0.2-0.2-0.3-0.4-0.5-0.6c-5.4,16.6-8.6,35.7-8.6,55.9c0,1.1,0,2.2,0,3.4
				c0.2,0.2,0.4,0.4,0.6,0.6c0-1.3-0.1-2.6-0.1-4C90,236.7,93.1,217.9,98.4,201.4z"/>
			<path fill="#CBCBD5" d="M228.7,241.3c-0.4-5-1-10-1.8-14.8c-0.2,0.1-0.4,0.2-0.6,0.3c0.8,5.2,1.5,10.5,1.8,15.9
				C228.4,242.3,228.6,241.8,228.7,241.3z"/>
			<path fill="#CBCBD5" d="M99,202c-0.2-0.2-0.3-0.4-0.5-0.6c-5.4,16.4-8.4,35.3-8.5,55.3c0,1.3,0,2.7,0.1,4
				c0.2,0.2,0.4,0.4,0.6,0.6c0-1.5-0.1-3-0.1-4.6C90.6,237,93.6,218.3,99,202z"/>
			<path fill="#CCCCD7" d="M228.2,242.8c-0.4-5.4-1-10.7-1.8-15.9c-0.2,0.1-0.4,0.2-0.6,0.3c0.9,5.5,1.5,11.2,1.9,17.1
				C227.9,243.7,228.1,243.2,228.2,242.8z"/>
			<path fill="#CCCCD7" d="M99.5,202.6c-0.2-0.2-0.3-0.4-0.5-0.6c-5.3,16.3-8.3,34.9-8.4,54.8c0,1.5,0,3,0.1,4.6
				c0.2,0.2,0.4,0.4,0.6,0.6c0-1.7-0.1-3.4-0.1-5.1C91.2,237.2,94.2,218.7,99.5,202.6z"/>
			<path fill="#CECED8" d="M227.7,244.2c-0.4-5.8-1-11.5-1.9-17.1c-0.2,0.1-0.4,0.2-0.6,0.3c0.9,5.9,1.6,11.9,2,18.2
				C227.4,245.1,227.5,244.7,227.7,244.2z"/>
			<path fill="#CECED8" d="M100,203.1c-0.2-0.2-0.3-0.4-0.5-0.6c-5.2,16.1-8.2,34.6-8.3,54.2c0,1.7,0,3.4,0.1,5.1
				c0.2,0.2,0.4,0.4,0.6,0.6c-0.1-1.9-0.1-3.8-0.1-5.7C91.8,237.4,94.8,219.1,100,203.1z"/>
			<path fill="#CFCFD9" d="M100.5,203.7c-0.2-0.2-0.3-0.4-0.5-0.6c-5.2,16-8.2,34.2-8.2,53.6c0,1.9,0,3.8,0.1,5.7
				c0.2,0.2,0.4,0.4,0.6,0.6c-0.1-2.1-0.1-4.2-0.1-6.3C92.5,237.6,95.4,219.5,100.5,203.7z"/>
			<path fill="#CFCFD9" d="M227.2,245.6c-0.4-6.2-1-12.3-2-18.2c-0.2,0.1-0.4,0.2-0.6,0.3c1,6.2,1.7,12.7,2,19.3
				C226.8,246.5,227,246,227.2,245.6z"/>
			<path fill="#D0D0DA" d="M101,204.3c-0.2-0.2-0.3-0.4-0.5-0.6c-5.1,15.8-8.1,33.9-8.1,53.1c0,2.1,0,4.2,0.1,6.3
				c0.2,0.2,0.4,0.4,0.6,0.6c-0.1-2.3-0.1-4.6-0.1-6.9C93.1,237.8,96,219.9,101,204.3z"/>
			<path fill="#D0D0DA" d="M226.6,246.9c-0.3-6.6-1-13.1-2-19.3c-0.2,0.1-0.4,0.2-0.6,0.3c1.1,6.6,1.8,13.4,2.1,20.3
				C226.3,247.8,226.5,247.4,226.6,246.9z"/>
			<path fill="#D1D1DB" d="M226.1,248.3c-0.3-7-1-13.8-2.1-20.3c-0.2,0.1-0.4,0.2-0.6,0.3c1.1,6.9,1.8,14,2.1,21.4
				C225.7,249.2,225.9,248.7,226.1,248.3z"/>
			<path fill="#D1D1DB" d="M101.6,204.8c-0.2-0.2-0.4-0.4-0.5-0.5c-5.1,15.6-8,33.5-8,52.5c0,2.3,0,4.6,0.1,6.9
				c0.2,0.2,0.4,0.4,0.6,0.6c-0.1-2.5-0.2-5-0.2-7.5C93.7,238,96.6,220.3,101.6,204.8z"/>
			<path fill="#D2D2DC" d="M225.5,249.6c-0.3-7.3-1-14.5-2.1-21.4c-0.2,0.1-0.4,0.2-0.6,0.3c1.2,7.2,1.9,14.7,2.1,22.4
				C225.1,250.5,225.3,250,225.5,249.6z"/>
			<path fill="#D2D2DC" d="M102.1,205.3c-0.2-0.2-0.4-0.4-0.5-0.5c-5,15.5-7.9,33.2-7.9,52c0,2.5,0.1,5,0.2,7.5
				c0.2,0.2,0.4,0.4,0.6,0.6c-0.1-2.7-0.2-5.3-0.2-8C94.3,238.2,97.1,220.7,102.1,205.3z"/>
			<path fill="#D3D3DD" d="M224.9,250.9c-0.2-7.7-1-15.2-2.1-22.4c-0.2,0.1-0.4,0.2-0.6,0.3c1.2,7.5,1.9,15.4,2.1,23.4
				C224.6,251.7,224.8,251.3,224.9,250.9z"/>
			<path fill="#D3D3DD" d="M102.6,205.9c-0.2-0.2-0.4-0.4-0.5-0.5c-5,15.3-7.8,32.8-7.8,51.5c0,2.7,0.1,5.4,0.2,8
				c0.2,0.2,0.4,0.4,0.6,0.6c-0.1-2.8-0.2-5.7-0.2-8.6C94.9,238.4,97.7,221,102.6,205.9z"/>
			<path fill="#D5D4DE" d="M224.4,252.2c-0.2-8.1-0.9-15.9-2.1-23.4c-0.2,0.1-0.4,0.2-0.6,0.3c1.3,7.8,2,16,2.1,24.4
				C224,253,224.2,252.6,224.4,252.2z"/>
			<path fill="#D5D4DE" d="M103.1,206.4c-0.2-0.2-0.4-0.3-0.5-0.5c-4.9,15.2-7.7,32.5-7.7,50.9c0,2.9,0.1,5.8,0.2,8.6
				c0.2,0.2,0.4,0.4,0.6,0.5c-0.1-3-0.2-6.1-0.2-9.1C95.5,238.6,98.3,221.4,103.1,206.4z"/>
			<path fill="#D6D6DF" d="M103.7,206.9c-0.2-0.2-0.4-0.3-0.5-0.5c-4.8,15-7.6,32.2-7.6,50.4c0,3.1,0.1,6.1,0.2,9.1
				c0.2,0.2,0.4,0.4,0.6,0.5c-0.2-3.2-0.3-6.4-0.3-9.7C96.2,238.8,98.9,221.8,103.7,206.9z"/>
			<path fill="#D6D6DF" d="M223.8,253.4c-0.2-8.4-0.9-16.6-2.1-24.4c-0.2,0.1-0.4,0.2-0.6,0.3c1.3,8.1,2.1,16.7,2.2,25.4
				C223.4,254.3,223.6,253.8,223.8,253.4z"/>
			<path fill="#D7D7E0" d="M104.2,207.4c-0.2-0.2-0.4-0.3-0.5-0.5c-4.8,14.9-7.5,31.8-7.6,49.9c0,3.3,0.1,6.5,0.3,9.7
				c0.2,0.2,0.4,0.4,0.6,0.5c-0.2-3.4-0.3-6.8-0.3-10.2C96.8,238.9,99.5,222.1,104.2,207.4z"/>
			<path fill="#D7D7E0" d="M223.2,254.7c-0.1-8.8-0.8-17.3-2.2-25.4c-0.2,0.1-0.4,0.2-0.6,0.3c1.4,8.4,2.1,17.3,2.1,26.4
				C222.8,255.5,223,255.1,223.2,254.7z"/>
			<path fill="#D8D8E1" d="M104.7,207.9c-0.2-0.2-0.4-0.3-0.5-0.5c-4.7,14.7-7.4,31.5-7.5,49.4c0,3.5,0.1,6.9,0.3,10.2
				c0.2,0.2,0.4,0.4,0.6,0.5c-0.2-3.5-0.3-7.1-0.3-10.8C97.4,239.1,100.1,222.5,104.7,207.9z"/>
			<path fill="#D8D8E1" d="M222,257.1c0.2-0.4,0.4-0.8,0.6-1.2c0-9.1-0.8-18-2.1-26.4c-0.2,0.1-0.4,0.2-0.6,0.2
				C221.2,238.4,222,247.6,222,257.1C222,257,222,257,222,257.1z"/>
			<path fill="#DAD9E3" d="M221.3,258.3c0.2-0.4,0.4-0.8,0.6-1.2c0,0,0,0,0-0.1c0-9.4-0.7-18.6-2.1-27.3c-0.2,0.1-0.4,0.2-0.6,0.2
				c1.4,8.6,2.1,17.7,2.1,27.1C221.3,257.4,221.3,257.9,221.3,258.3z"/>
			<path fill="#DAD9E3" d="M105.3,208.4c-0.2-0.2-0.4-0.3-0.5-0.5c-4.7,14.6-7.4,31.2-7.4,48.8c0,3.6,0.1,7.2,0.3,10.8
				c0.2,0.2,0.4,0.4,0.7,0.5c-0.2-3.7-0.4-7.5-0.4-11.3C98,239.3,100.6,222.9,105.3,208.4z"/>
			<path fill="#DBDBE4" d="M105.8,208.9c-0.2-0.2-0.4-0.3-0.5-0.5c-4.6,14.4-7.3,30.9-7.3,48.4c0,3.8,0.1,7.6,0.4,11.3
				c0.2,0.2,0.4,0.4,0.7,0.5c-0.3-3.9-0.4-7.8-0.4-11.8C98.6,239.5,101.2,223.2,105.8,208.9z"/>
			<path fill="#DBDBE4" d="M220.7,259.5c0.2-0.4,0.4-0.8,0.6-1.2c0-0.4,0-0.9,0-1.3c0-9.4-0.7-18.4-2.1-27.1
				c-0.2,0.1-0.4,0.2-0.6,0.2c1.4,8.5,2.1,17.5,2.1,26.8C220.7,257.8,220.7,258.6,220.7,259.5z"/>
			<path fill="#DCDCE5" d="M106.4,209.4c-0.2-0.2-0.4-0.3-0.5-0.5c-4.6,14.3-7.2,30.5-7.2,47.9c0,4,0.1,8,0.4,11.8
				c0.2,0.2,0.4,0.4,0.7,0.5c-0.3-4.1-0.5-8.2-0.4-12.4C99.2,239.7,101.8,223.6,106.4,209.4z"/>
			<path fill="#DCDCE5" d="M220,260.6c0.2-0.4,0.4-0.8,0.6-1.1c0-0.8,0-1.6,0-2.5c0-9.3-0.7-18.3-2.1-26.8c-0.2,0.1-0.4,0.2-0.6,0.2
				c1.4,8.5,2.1,17.4,2.1,26.6C220.1,258.2,220.1,259.4,220,260.6z"/>
			<path fill="#DDDDE6" d="M219.4,261.7c0.2-0.4,0.4-0.8,0.6-1.1c0-1.2,0.1-2.4,0.1-3.6c0-9.2-0.7-18.1-2.1-26.6
				c-0.2,0.1-0.4,0.2-0.6,0.2c1.4,8.4,2.1,17.2,2.1,26.4C219.5,258.6,219.5,260.2,219.4,261.7z"/>
			<path fill="#DDDDE6" d="M106.9,209.9c-0.2-0.2-0.4-0.3-0.5-0.5c-4.5,14.1-7.1,30.2-7.2,47.4c0,4.2,0.2,8.3,0.4,12.4
				c0.2,0.2,0.4,0.3,0.7,0.5c-0.3-4.2-0.5-8.5-0.5-12.9C99.9,239.9,102.4,223.9,106.9,209.9z"/>
			<path fill="#DFDFE8" d="M107.4,210.4c-0.2-0.2-0.4-0.3-0.5-0.5c-4.5,14-7.1,29.9-7.1,46.9c0,4.4,0.2,8.7,0.5,12.9
				c0.2,0.2,0.4,0.3,0.7,0.5c-0.3-4.4-0.5-8.8-0.5-13.4C100.5,240,103,224.2,107.4,210.4z"/>
			<path fill="#DFDFE8" d="M218.8,262.9c0.2-0.4,0.4-0.7,0.7-1.1c0-1.6,0.1-3.2,0.1-4.8c0-9.1-0.7-18-2.1-26.4
				c-0.2,0.1-0.4,0.1-0.6,0.2c1.4,8.3,2.1,17.1,2.1,26.1C218.9,259,218.8,260.9,218.8,262.9z"/>
			<path fill="#E0E0E9" d="M218.1,264c0.2-0.4,0.4-0.7,0.7-1.1c0.1-1.9,0.1-3.9,0.1-5.9c0-9-0.7-17.8-2.1-26.1
				c-0.2,0.1-0.4,0.1-0.6,0.2c1.3,8.3,2.1,16.9,2,25.9C218.3,259.3,218.2,261.7,218.1,264z"/>
			<path fill="#E0E0E9" d="M108,210.9c-0.2-0.2-0.4-0.3-0.5-0.5c-4.4,13.8-7,29.6-7,46.4c0,4.5,0.2,9,0.5,13.4
				c0.2,0.2,0.4,0.3,0.7,0.5c-0.4-4.5-0.6-9.2-0.6-13.9C101.1,240.2,103.6,224.6,108,210.9z"/>
			<path fill="#E2E1EA" d="M217.4,265.1c0.2-0.4,0.4-0.7,0.7-1.1c0.1-2.3,0.2-4.6,0.2-7c0-9-0.7-17.7-2-25.9
				c-0.2,0.1-0.4,0.1-0.6,0.2c1.3,8.2,2,16.8,2,25.7C217.6,259.7,217.6,262.4,217.4,265.1z"/>
			<path fill="#E2E1EA" d="M108.5,211.4c-0.2-0.2-0.4-0.3-0.5-0.5c-4.4,13.7-6.9,29.3-6.9,45.9c0,4.7,0.2,9.4,0.6,13.9
				c0.2,0.2,0.4,0.3,0.7,0.5c-0.4-4.7-0.6-9.5-0.6-14.4C101.7,240.4,104.2,224.9,108.5,211.4z"/>
			<path fill="#E3E3EC" d="M216.7,266.1c0.2-0.3,0.5-0.7,0.7-1c0.1-2.7,0.2-5.4,0.2-8.1c0-8.9-0.7-17.5-2-25.7
				c-0.2,0.1-0.4,0.1-0.6,0.2c1.3,8.1,2,16.7,2,25.5C217,260.1,216.9,263.1,216.7,266.1z"/>
			<path fill="#E3E3EC" d="M109.1,211.8c-0.2-0.2-0.4-0.3-0.6-0.5c-4.4,13.5-6.8,29-6.9,45.4c0,4.9,0.2,9.7,0.6,14.4
				c0.2,0.2,0.4,0.3,0.7,0.5c-0.4-4.9-0.7-9.8-0.7-14.9C102.3,240.5,104.8,225.2,109.1,211.8z"/>
			<path fill="#E4E4ED" d="M216.1,267.2c0.2-0.4,0.5-0.7,0.7-1.1c0.2-3,0.3-6.1,0.3-9.1c0-8.8-0.7-17.4-2-25.5
				c-0.2,0.1-0.4,0.1-0.6,0.2c1.3,8,2,16.5,2,25.3C216.4,260.4,216.3,263.8,216.1,267.2z"/>
			<path fill="#E4E4ED" d="M109.6,212.3c-0.2-0.2-0.4-0.3-0.5-0.5c-4.3,13.4-6.8,28.7-6.8,45c0,5.1,0.2,10,0.7,14.9
				c0.2,0.2,0.5,0.3,0.7,0.5c-0.5-5-0.7-10.2-0.7-15.4C102.9,240.7,105.4,225.6,109.6,212.3z"/>
			<path fill="#E6E6EF" d="M110.2,212.8c-0.2-0.2-0.4-0.3-0.6-0.5c-4.3,13.3-6.7,28.4-6.7,44.5c0,5.2,0.2,10.4,0.7,15.4
				c0.2,0.2,0.5,0.3,0.7,0.5c-0.5-5.2-0.8-10.5-0.8-15.9C103.5,240.9,106,225.9,110.2,212.8z"/>
			<path fill="#E6E6EF" d="M215.4,268.3c0.2-0.4,0.5-0.7,0.7-1.1c0.2-3.4,0.3-6.8,0.4-10.2c0-8.8-0.7-17.2-2-25.3
				c-0.2,0.1-0.4,0.1-0.6,0.2c1.3,8,2,16.4,2,25.1C215.8,260.8,215.6,264.6,215.4,268.3z"/>
			<path fill="#E7E7F0" d="M214.7,269.3c0.2-0.3,0.5-0.7,0.7-1c0.3-3.7,0.4-7.5,0.4-11.3c0-8.7-0.7-17.1-2-25.1
				c-0.2,0.1-0.4,0.1-0.6,0.2c1.3,7.9,2,16.3,2,24.9C215.2,261.2,215,265.3,214.7,269.3z"/>
			<path fill="#E7E7F0" d="M110.7,213.2c-0.2-0.2-0.4-0.3-0.6-0.5c-4.2,13.1-6.6,28.1-6.7,44c0,5.4,0.3,10.7,0.8,15.9
				c0.2,0.2,0.5,0.3,0.7,0.5c-0.6-5.3-0.9-10.8-0.9-16.4C104.2,241,106.6,226.2,110.7,213.2z"/>
			<path fill="#E9E9F2" d="M111.3,213.7c-0.2-0.1-0.4-0.3-0.6-0.4c-4.2,13-6.6,27.8-6.6,43.6c0,5.6,0.3,11.1,0.9,16.4
				c0.2,0.2,0.5,0.3,0.7,0.5c-0.6-5.5-0.9-11.1-0.9-16.9C104.8,241.2,107.1,226.5,111.3,213.7z"/>
			<path fill="#E9E9F2" d="M214,270.3c0.2-0.3,0.5-0.7,0.7-1c0.3-4,0.5-8.1,0.5-12.3c0-8.6-0.7-17-2-24.9c-0.2,0.1-0.4,0.1-0.6,0.2
				c1.3,7.9,2,16.1,2,24.7C214.6,261.5,214.3,266,214,270.3z"/>
			<path fill="#EAEAF4" d="M111.9,214.1c-0.2-0.1-0.4-0.3-0.6-0.4c-4.1,12.9-6.5,27.5-6.5,43.2c0,5.8,0.3,11.4,0.9,16.9
				c0.2,0.2,0.4,0.3,0.7,0.5c-0.6-5.6-1-11.4-1-17.4C105.4,241.4,107.7,226.8,111.9,214.1z"/>
			<path fill="#EAEAF4" d="M213.2,271.4c0.2-0.3,0.5-0.7,0.7-1c0.4-4.4,0.6-8.8,0.6-13.3c0-8.5-0.7-16.8-2-24.7
				c-0.2,0.1-0.4,0.1-0.6,0.2c1.3,7.8,2,16,2,24.5C213.9,261.9,213.7,266.7,213.2,271.4z"/>
			<path fill="#ECECF6" d="M197.3,289.7c1.3-1.1,2.5-2.3,3.6-3.5c1.7-1.7,3.3-3.4,4.8-5.2c2.7-3.1,5.2-6.3,7.6-9.6
				c0.5-4.7,0.7-9.5,0.7-14.4c0-8.5-0.7-16.7-2-24.5c-9.7,3-19.9,4.7-30.5,4.9c-0.6,0-1.1,0-1.7,0c-0.1,0-0.1,0-0.2,0
				c-25.7,0-49.3-8.7-67.8-23.3c-4.1,12.7-6.5,27.3-6.5,42.7c0,5.9,0.3,11.7,1,17.4c17.6,12.4,38.3,20.7,60.6,23.8
				c1.1,0.2,2.3,0.3,3.5,0.4c0.9,0.1,1.9,0.1,2.9,0.1c3,0,5.9-0.4,8.8-1C187.7,296.1,192.9,293.4,197.3,289.7z"/>
		</g>
	</g>
	<image width="1243" height="1243" xlink:href="FAC801BBC55389EF.png"  transform="matrix(0.24 0 0 0.24 44.0742 1.0879)">
	</image>
	<image width="240" height="240" xlink:href="FAC801BBC55389E0.png"  transform="matrix(0.24 0 0 0.24 104.918 258.7412)">
	</image>
	<g>
		<image width="732" height="462" xlink:href="FAC801BBC55389E1.png"  transform="matrix(0.24 0 0 0.24 91 187.5459)">
		</image>
	</g>
	<image width="884" height="855" xlink:href="FAC801BBC55389E6.png"  transform="matrix(0.24 0 0 0.24 81.27 20.4668)">
	</image>
	<image width="943" height="1387" xlink:href="3EE840238512EE2E.png"  transform="matrix(0.24 0 0 0.24 12.7754 12.2158)">
	</image>
	<image width="697" height="793" xlink:href="3EE840238512EE29.png"  transform="matrix(0.24 0 0 0.24 65.8047 84.1914)">
	</image>
	<image width="471" height="1142" xlink:href="3EE840238512EE2A.png"  transform="matrix(0.24 0 0 0.24 46.8008 22.4824)">
	</image>
	<g>
		<image width="771" height="1442" xlink:href="3EE840238512EE28.png"  transform="matrix(0.24 0 0 0.24 10.8008 -13.5967)">
		</image>
	</g>
	<image width="1046" height="1425" xlink:href="3EE840238512EE26.png"  transform="matrix(0.24 0 0 0.24 -1.7241 11.5898)">
	</image>
</g>
</svg>
